<svg width="110" height="32" viewBox="0 0 110 32" fill="none" xmlns="http://www.w3.org/2000/svg">
<path d="M14.9849 0.802628C17.9489 0.802455 20.8464 1.69364 23.3109 3.36348C25.7754 5.03332 27.6963 7.40682 28.8307 10.1838C29.965 12.9608 30.2619 16.0166 29.6837 18.9646C29.1055 21.9127 27.6782 24.6207 25.5823 26.7462C23.4865 28.8716 20.8162 30.319 17.9092 30.9054C15.0021 31.4918 11.9889 31.1907 9.25058 30.0404C6.51225 28.89 4.1718 26.942 2.5252 24.4427C0.878608 21.9433 -0.000169943 19.0049 2.46509e-08 15.9991C2.46509e-08 14.0035 0.3876 12.0274 1.14066 10.1837C1.89373 8.33995 2.9975 6.6647 4.38898 5.25358C5.78046 3.84245 7.43239 2.72309 9.25045 1.95939C11.0685 1.1957 13.0171 0.802628 14.9849 0.802628ZM10.0959 15.9991C10.0959 23.3433 14.9849 29.2966 14.9849 29.2966C14.9849 29.2966 19.8739 23.3433 19.8739 15.9991C19.8739 8.65492 14.9849 2.70252 14.9849 2.70252C14.9849 2.70252 10.0959 8.65579 10.0959 15.9991Z" fill="#4FFFB0"/>
<path d="M40.0701 17.689V5.8687H48.3948V7.55768H50.0603V10.9339H48.3948V12.6229H50.0603V16H48.3948V17.689H40.0701ZM43.3984 10.9339H46.7285V7.55768H43.3984V10.9339ZM46.7285 12.6229H43.3984V16H46.7285V12.6229Z" fill="#4FFFB0"/>
<path d="M53.3904 16H51.7258V10.9339H53.3904V9.2458H61.7152V17.689H53.3904V16ZM55.055 16H58.386V10.9339H55.055V16Z" fill="#4FFFB0"/>
<path d="M73.37 17.689H63.3798V16H70.0391V14.3119H63.3789V9.2458H73.3691V10.9339H66.709V12.6229H73.3691L73.37 17.689Z" fill="#4FFFB0"/>
<path d="M75.0347 7.55768V5.8687H78.3647V7.55768H75.0347ZM75.0347 17.689V9.24579H78.3647V17.689H75.0347Z" fill="#4FFFB0"/>
<path d="M83.3595 17.689H80.0303V5.8687H83.3595V17.689Z" fill="#4FFFB0"/>
<path d="M85.0249 7.55768V5.8687H88.355V7.55768H85.0249ZM85.0249 17.689V9.24579H88.355V17.689H85.0249Z" fill="#4FFFB0"/>
<path d="M100.01 17.689H90.0195V16H96.6797V14.3119H90.0195V9.2458H100.01V10.9339H93.3496V12.6229H100.01V17.689Z" fill="#4FFFB0"/>
<path d="M108.335 16H110V17.689H106.67V16H105.005V17.689H101.675V5.8687H105.005V10.9339H106.67V9.24579H110V10.9339H108.335V12.6229H106.67V14.3119H108.335V16Z" fill="#4FFFB0"/>
<path d="M46.5155 22.3315H45.2668V23.5978H46.5155V22.3315Z" fill="#4FFFB0"/>
<path d="M47.7641 22.3315H46.5154V23.5978H47.7641V22.3315Z" fill="#4FFFB0"/>
<path d="M49.0138 22.3315H47.7651V23.5978H49.0138V22.3315Z" fill="#4FFFB0"/>
<path d="M47.7641 23.5978H46.5154V24.8641H47.7641V23.5978Z" fill="#4FFFB0"/>
<path d="M49.0138 23.5978H47.7651V24.8641H49.0138V23.5978Z" fill="#4FFFB0"/>
<path d="M50.2623 23.5978H49.0137V24.8641H50.2623V23.5978Z" fill="#4FFFB0"/>
<path d="M41.5207 22.3315H40.272V23.5978H41.5207V22.3315Z" fill="#4FFFB0"/>
<path d="M42.7694 22.3315H41.5208V23.5978H42.7694V22.3315Z" fill="#4FFFB0"/>
<path d="M44.0182 22.3315H42.7695V23.5978H44.0182V22.3315Z" fill="#4FFFB0"/>
<path d="M42.7694 23.5978H41.5208V24.8641H42.7694V23.5978Z" fill="#4FFFB0"/>
<path d="M44.0182 23.5978H42.7695V24.8641H44.0182V23.5978Z" fill="#4FFFB0"/>
<path d="M45.2667 23.5978H44.0181V24.8641H45.2667V23.5978Z" fill="#4FFFB0"/>
<path d="M51.5109 22.3315H50.2622V23.5978H51.5109V22.3315Z" fill="#4FFFB0"/>
<path d="M52.7597 22.3315H51.511V23.5978H52.7597V22.3315Z" fill="#4FFFB0"/>
<path d="M54.0084 22.3315H52.7598V23.5978H54.0084V22.3315Z" fill="#4FFFB0"/>
<path d="M52.7597 23.5978H51.511V24.8641H52.7597V23.5978Z" fill="#4FFFB0"/>
<path d="M54.0084 23.5978H52.7598V24.8641H54.0084V23.5978Z" fill="#4FFFB0"/>
<path d="M55.257 23.5978H54.0083V24.8641H55.257V23.5978Z" fill="#4FFFB0"/>
<path d="M56.5058 22.3315H55.2571V23.5978H56.5058V22.3315Z" fill="#4FFFB0"/>
<path d="M57.7543 22.3315H56.5056V23.5978H57.7543V22.3315Z" fill="#4FFFB0"/>
<path d="M59.0031 22.3315H57.7544V23.5978H59.0031V22.3315Z" fill="#4FFFB0"/>
<path d="M57.7543 23.5978H56.5056V24.8641H57.7543V23.5978Z" fill="#4FFFB0"/>
<path d="M59.0031 23.5978H57.7544V24.8641H59.0031V23.5978Z" fill="#4FFFB0"/>
<path d="M60.2518 23.5978H59.0032V24.8641H60.2518V23.5978Z" fill="#4FFFB0"/>
<path d="M61.5011 22.3315H60.2524V23.5978H61.5011V22.3315Z" fill="#4FFFB0"/>
<path d="M62.7499 22.3315H61.5012V23.5978H62.7499V22.3315Z" fill="#4FFFB0"/>
<path d="M63.9987 22.3315H62.75V23.5978H63.9987V22.3315Z" fill="#4FFFB0"/>
<path d="M62.7499 23.5978H61.5012V24.8641H62.7499V23.5978Z" fill="#4FFFB0"/>
<path d="M63.9987 23.5978H62.75V24.8641H63.9987V23.5978Z" fill="#4FFFB0"/>
<path d="M65.2472 23.5978H63.9985V24.8641H65.2472V23.5978Z" fill="#4FFFB0"/>
<path d="M66.496 22.3315H65.2473V23.5978H66.496V22.3315Z" fill="#4FFFB0"/>
<path d="M67.7445 22.3315H66.4958V23.5978H67.7445V22.3315Z" fill="#4FFFB0"/>
<path d="M68.9933 22.3315H67.7446V23.5978H68.9933V22.3315Z" fill="#4FFFB0"/>
<path d="M67.7445 23.5978H66.4958V24.8641H67.7445V23.5978Z" fill="#4FFFB0"/>
<path d="M68.9933 23.5978H67.7446V24.8641H68.9933V23.5978Z" fill="#4FFFB0"/>
<path d="M70.2421 23.5978H68.9934V24.8641H70.2421V23.5978Z" fill="#4FFFB0"/>
<path d="M71.4906 22.3315H70.2419V23.5978H71.4906V22.3315Z" fill="#4FFFB0"/>
<path d="M72.7392 22.3315H71.4905V23.5978H72.7392V22.3315Z" fill="#4FFFB0"/>
<path d="M73.9889 22.3315H72.7402V23.5978H73.9889V22.3315Z" fill="#4FFFB0"/>
<path d="M72.7392 23.5978H71.4905V24.8641H72.7392V23.5978Z" fill="#4FFFB0"/>
<path d="M73.9889 23.5978H72.7402V24.8641H73.9889V23.5978Z" fill="#4FFFB0"/>
<path d="M75.2374 23.5978H73.9888V24.8641H75.2374V23.5978Z" fill="#4FFFB0"/>
<path d="M76.4862 22.3315H75.2375V23.5978H76.4862V22.3315Z" fill="#4FFFB0"/>
<path d="M77.7348 22.3315H76.4861V23.5978H77.7348V22.3315Z" fill="#4FFFB0"/>
<path d="M78.9835 22.3315H77.7349V23.5978H78.9835V22.3315Z" fill="#4FFFB0"/>
<path d="M77.7348 23.5978H76.4861V24.8641H77.7348V23.5978Z" fill="#4FFFB0"/>
<path d="M78.9835 23.5978H77.7349V24.8641H78.9835V23.5978Z" fill="#4FFFB0"/>
<path d="M80.2323 23.5978H78.9836V24.8641H80.2323V23.5978Z" fill="#4FFFB0"/>
<path d="M81.4809 22.3315H80.2322V23.5978H81.4809V22.3315Z" fill="#4FFFB0"/>
<path d="M82.7294 22.3315H81.4807V23.5978H82.7294V22.3315Z" fill="#4FFFB0"/>
<path d="M83.9782 22.3315H82.7295V23.5978H83.9782V22.3315Z" fill="#4FFFB0"/>
<path d="M82.7294 23.5978H81.4807V24.8641H82.7294V23.5978Z" fill="#4FFFB0"/>
<path d="M83.9782 23.5978H82.7295V24.8641H83.9782V23.5978Z" fill="#4FFFB0"/>
<path d="M85.2267 23.5978H83.978V24.8641H85.2267V23.5978Z" fill="#4FFFB0"/>
<path d="M86.4765 22.3315H85.2278V23.5978H86.4765V22.3315Z" fill="#4FFFB0"/>
<path d="M87.725 22.3315H86.4763V23.5978H87.725V22.3315Z" fill="#4FFFB0"/>
<path d="M88.9738 22.3315H87.7251V23.5978H88.9738V22.3315Z" fill="#4FFFB0"/>
<path d="M87.725 23.5978H86.4763V24.8641H87.725V23.5978Z" fill="#4FFFB0"/>
<path d="M88.9738 23.5978H87.7251V24.8641H88.9738V23.5978Z" fill="#4FFFB0"/>
<path d="M90.2226 23.5978H88.9739V24.8641H90.2226V23.5978Z" fill="#4FFFB0"/>
<path d="M91.4711 22.3315H90.2224V23.5978H91.4711V22.3315Z" fill="#4FFFB0"/>
<path d="M92.7196 22.3315H91.4709V23.5978H92.7196V22.3315Z" fill="#4FFFB0"/>
<path d="M95.217 22.3315H93.9683V23.5978H95.217V22.3315Z" fill="#4FFFB0"/>
<path d="M93.9684 21.0652H92.7197V22.3315H93.9684V21.0652Z" fill="#4FFFB0"/>
<path d="M92.7196 23.5978H91.4709V24.8641H92.7196V23.5978Z" fill="#4FFFB0"/>
<path d="M93.9684 23.5978H92.7197V24.8641H93.9684V23.5978Z" fill="#4FFFB0"/>
<path d="M95.217 23.5978H93.9683V24.8641H95.217V23.5978Z" fill="#4FFFB0"/>
<path d="M96.4657 22.3315H95.217V23.5978H96.4657V22.3315Z" fill="#4FFFB0"/>
<path d="M96.4657 23.5978H95.217V24.8641H96.4657V23.5978Z" fill="#4FFFB0"/>
<path d="M103.959 21.0652H102.71V22.3315H103.959V21.0652Z" fill="#4FFFB0"/>
<path d="M102.71 23.5978H101.461V24.8641H102.71V23.5978Z" fill="#4FFFB0"/>
<path d="M101.461 22.3315V23.5978H102.71V22.3315H101.461Z" fill="#4FFFB0"/>
<path d="M103.96 21.0652V22.3315H105.208V21.0652H103.96Z" fill="#4FFFB0"/>
<path d="M105.207 23.5969H106.456V22.3306H105.207V23.5969Z" fill="#4FFFB0"/>
<path d="M106.456 24.8641V23.5978H105.207V24.8641H106.456Z" fill="#4FFFB0"/>
<path d="M105.207 26.1304V24.8641H103.959V26.1304H105.207Z" fill="#4FFFB0"/>
<path d="M103.958 26.1304V24.8641H102.71V26.1304H103.958Z" fill="#4FFFB0"/>
</svg>
